<mxfile host="app.diagrams.net" modified="2021-09-07T03:56:12.767Z" agent="5.0 (Macintosh; Intel Mac OS X 10_15_5) AppleWebKit/537.36 (KHTML, like Gecko) Chrome/93.0.4577.42 Safari/537.36" etag="_WTIc4_-15YIeyTCMr4R" version="15.0.6" type="github">
  <diagram id="iNsHcMwrmmbcLGfQnOlX" name="Page-1">
    <mxGraphModel dx="1426" dy="877" grid="1" gridSize="10" guides="1" tooltips="1" connect="1" arrows="1" fold="1" page="1" pageScale="1" pageWidth="850" pageHeight="1100" math="0" shadow="0">
      <root>
        <mxCell id="0" />
        <mxCell id="1" parent="0" />
        <mxCell id="HGTjr76yow4Dfk2mHGvm-12" value="" style="ellipse;whiteSpace=wrap;html=1;fillColor=none;" vertex="1" parent="1">
          <mxGeometry x="500" y="330" width="510" height="450" as="geometry" />
        </mxCell>
        <mxCell id="HGTjr76yow4Dfk2mHGvm-11" value="" style="ellipse;whiteSpace=wrap;html=1;fillColor=none;" vertex="1" parent="1">
          <mxGeometry x="180" y="330" width="510" height="450" as="geometry" />
        </mxCell>
        <mxCell id="HGTjr76yow4Dfk2mHGvm-1" value="接口层" style="rounded=0;whiteSpace=wrap;html=1;" vertex="1" parent="1">
          <mxGeometry x="220" y="560" width="120" height="30" as="geometry" />
        </mxCell>
        <mxCell id="HGTjr76yow4Dfk2mHGvm-2" value="IP层" style="rounded=0;whiteSpace=wrap;html=1;" vertex="1" parent="1">
          <mxGeometry x="220" y="530" width="120" height="30" as="geometry" />
        </mxCell>
        <mxCell id="HGTjr76yow4Dfk2mHGvm-3" value="物理层" style="rounded=0;whiteSpace=wrap;html=1;" vertex="1" parent="1">
          <mxGeometry x="220" y="590" width="120" height="30" as="geometry" />
        </mxCell>
        <mxCell id="HGTjr76yow4Dfk2mHGvm-6" value="接口层" style="rounded=0;whiteSpace=wrap;html=1;" vertex="1" parent="1">
          <mxGeometry x="540" y="560" width="120" height="30" as="geometry" />
        </mxCell>
        <mxCell id="HGTjr76yow4Dfk2mHGvm-7" value="IP层" style="rounded=0;whiteSpace=wrap;html=1;" vertex="1" parent="1">
          <mxGeometry x="540" y="530" width="120" height="30" as="geometry" />
        </mxCell>
        <mxCell id="HGTjr76yow4Dfk2mHGvm-8" value="物理层" style="rounded=0;whiteSpace=wrap;html=1;" vertex="1" parent="1">
          <mxGeometry x="540" y="590" width="120" height="30" as="geometry" />
        </mxCell>
        <mxCell id="HGTjr76yow4Dfk2mHGvm-9" value="gateway" style="text;html=1;strokeColor=none;fillColor=none;align=center;verticalAlign=middle;whiteSpace=wrap;rounded=0;" vertex="1" parent="1">
          <mxGeometry x="580" y="490" width="40" height="20" as="geometry" />
        </mxCell>
        <mxCell id="HGTjr76yow4Dfk2mHGvm-10" value="源" style="text;html=1;strokeColor=none;fillColor=none;align=center;verticalAlign=middle;whiteSpace=wrap;rounded=0;" vertex="1" parent="1">
          <mxGeometry x="260" y="490" width="40" height="20" as="geometry" />
        </mxCell>
        <mxCell id="HGTjr76yow4Dfk2mHGvm-13" value="接口层" style="rounded=0;whiteSpace=wrap;html=1;" vertex="1" parent="1">
          <mxGeometry x="830" y="560" width="120" height="30" as="geometry" />
        </mxCell>
        <mxCell id="HGTjr76yow4Dfk2mHGvm-14" value="IP层" style="rounded=0;whiteSpace=wrap;html=1;" vertex="1" parent="1">
          <mxGeometry x="830" y="530" width="120" height="30" as="geometry" />
        </mxCell>
        <mxCell id="HGTjr76yow4Dfk2mHGvm-15" value="物理层" style="rounded=0;whiteSpace=wrap;html=1;" vertex="1" parent="1">
          <mxGeometry x="830" y="590" width="120" height="30" as="geometry" />
        </mxCell>
        <mxCell id="HGTjr76yow4Dfk2mHGvm-16" value="目的" style="text;html=1;strokeColor=none;fillColor=none;align=center;verticalAlign=middle;whiteSpace=wrap;rounded=0;" vertex="1" parent="1">
          <mxGeometry x="870" y="490" width="40" height="20" as="geometry" />
        </mxCell>
        <mxCell id="HGTjr76yow4Dfk2mHGvm-19" value="" style="endArrow=classic;html=1;rounded=1;strokeColor=#FF0000;" edge="1" parent="1">
          <mxGeometry width="50" height="50" relative="1" as="geometry">
            <mxPoint x="230" y="570" as="sourcePoint" />
            <mxPoint x="940" y="550" as="targetPoint" />
            <Array as="points">
              <mxPoint x="230" y="640" />
              <mxPoint x="230" y="660" />
              <mxPoint x="390" y="660" />
              <mxPoint x="540" y="660" />
              <mxPoint x="540" y="650" />
              <mxPoint x="550" y="590" />
              <mxPoint x="560" y="550" />
              <mxPoint x="570" y="540" />
              <mxPoint x="580" y="660" />
              <mxPoint x="590" y="660" />
              <mxPoint x="660" y="660" />
              <mxPoint x="850" y="660" />
              <mxPoint x="910" y="660" />
              <mxPoint x="930" y="660" />
              <mxPoint x="940" y="660" />
            </Array>
          </mxGeometry>
        </mxCell>
      </root>
    </mxGraphModel>
  </diagram>
</mxfile>
